<?xml version="1.0" encoding="iso-8859-1"?>
<!-- Uploaded to: SVG Repo, www.svgrepo.com, Generator: SVG Repo Mixer Tools -->
<!DOCTYPE svg PUBLIC "-//W3C//DTD SVG 1.1//EN" "http://www.w3.org/Graphics/SVG/1.1/DTD/svg11.dtd">
<svg fill="#000000" height="800px" width="800px" version="1.1" id="Capa_1" xmlns="http://www.w3.org/2000/svg" xmlns:xlink="http://www.w3.org/1999/xlink" 
	 viewBox="0 0 372.834 372.834" xml:space="preserve">
<path d="M110.179,263.42c-3.611-6.702,0.621-13.195,4.713-19.474l20.983-31.549c8.607-12.991,28.762-43.412,34.425-51.813
	c2.417-3.585,4.306-6.205,6.251-8.193c3.318-3.392,6.985-4.935,10.902-4.586c6.761,0.604,10.776,6.517,14.659,12.235
	c2.792,4.112,1.722,9.709-2.39,12.501c-4.112,2.794-9.709,1.723-12.501-2.39c-0.291-0.429-0.568-0.833-0.831-1.212
	c-0.399,0.577-0.794,1.158-1.165,1.708c-5.623,8.34-25.749,38.719-34.344,51.691l-2.106,3.179c-0.011,0.016-0.021,0.031-0.032,0.047
	l-17.851,26.828c0.141,0.001,0.284,0.001,0.428,0.002c11.875,0.057,56.634,0.041,70.011,0.021c0.207-0.015,0.416-0.021,0.626-0.021
	h39.998c-3.046-4.61-12.66-19.067-23.254-34.981l-2.455,12.441c-0.962,4.876-5.7,8.052-10.572,7.088
	c-4.876-0.963-8.05-5.696-7.087-10.572l6.648-33.69c0.383-2.147,1.541-4.152,3.382-5.563c1.981-1.521,4.582-2.214,7.223-1.691
	l33.858,6.681c4.876,0.963,8.05,5.695,7.087,10.572c-0.961,4.877-5.697,8.048-10.572,7.088l-12.639-2.494
	c11.585,17.403,22.033,33.115,24.072,36.222c4.251,6.475,8.647,13.17,5.026,19.942c-3.65,6.827-11.793,6.891-20.415,6.958H202.57
	c-0.198,0.014-0.397,0.021-0.599,0.021c-6.184,0.01-20.469,0.019-34.829,0.019c-14.84,0-29.761-0.01-35.91-0.039
	C122.314,270.352,113.891,270.311,110.179,263.42z M337.519,14.737H222.505c1.29-1.558,2.065-3.557,2.065-5.737c0-4.971-4.029-9-9-9
	h-58.052c-4.971,0-9,4.029-9,9c0,2.181,0.775,4.18,2.065,5.737H35.315c-4.971,0-9,4.029-9,9s4.029,9,9,9h302.203
	c4.971,0,9-4.029,9-9S342.489,14.737,337.519,14.737z M331.04,63.285c1.708,1.907,2.521,4.451,2.239,6.996L303.774,335.79
	c-2.27,20.426-20.754,37.044-41.206,37.044H110.27c-20.454,0-38.94-16.618-41.21-37.044L39.558,70.281
	c-0.283-2.545,0.531-5.089,2.239-6.996c1.707-1.908,4.146-2.998,6.706-2.998h275.831C326.894,60.287,329.333,61.377,331.04,63.285z
	 M314.278,78.287H58.558l28.391,255.515c1.267,11.4,11.946,21.032,23.32,21.032h152.299c11.372,0,22.049-9.632,23.316-21.032
	L314.278,78.287z"/>
</svg>